# xmcd
#
# Track frame offsets:
#	151
#	13837
#	22498
#	40385
#	57878
#	68230
#	77246
#	95064
#	107032
#	121192
#	134288
#	147545
#	155444
#	166639
#	177369
#	187694
#	202850
#	214628
#	225040
#	241155
#	255715
#	267925
#	281634
#	294432
#	299830
#
# Disc length: 4095 seconds
#
# Revision: 1
# Processed by: cddbd v1.5.1PL0 Copyright (c) Steve Scherf et al.
# Submitted via: audiograbber 1.83.01
#
DISCID=6e0ffd19
DTITLE=Larry Niven - Rainbow Mars [CD 1 of 11]
DYEAR=2000
DGENRE=Audio Book
TTITLE0=Chapter 0.1
TTITLE1=Chapter 0.2
TTITLE2=Chapter 1
TTITLE3=Chapter 2.1
TTITLE4=Chapter 2.2
TTITLE5=Chapter 2.3
TTITLE6=Chapter 3.1
TTITLE7=Chapter 3.2
TTITLE8=Chapter 3.4
TTITLE9=Chapter 3.5
TTITLE10=Chapter 3.6
TTITLE11=Chapter 3.7
TTITLE12=Chapter 4.1
TTITLE13=Chapter 4.2
TTITLE14=Chapter 4.3
TTITLE15=Chapter 4.4
TTITLE16=Chapter 5.1
TTITLE17=Chapter 5.2
TTITLE18=Chapter 6.1
TTITLE19=Chapter 6.2
TTITLE20=Chapter 7.1
TTITLE21=Chapter 7.2
TTITLE22=Chapter 7.3
TTITLE23=Chapter 7.4
TTITLE24=Chapter 8.1
EXTD=
EXTT0=
EXTT1=
EXTT2=
EXTT3=
EXTT4=
EXTT5=
EXTT6=
EXTT7=
EXTT8=
EXTT9=
EXTT10=
EXTT11=
EXTT12=
EXTT13=
EXTT14=
EXTT15=
EXTT16=
EXTT17=
EXTT18=
EXTT19=
EXTT20=
EXTT21=
EXTT22=
EXTT23=
EXTT24=
PLAYORDER=
